HIERARCHY
ROOT Hips
{
	OFFSET 0.000000 89.005402 0.000000
	CHANNELS 6 Xposition Yposition Zposition Xrotation Yrotation Zrotation
	JOINT Spine
	{
		OFFSET 0.116900 10.681000 0.373400
		CHANNELS 3 Xrotation Yrotation Zrotation
		JOINT Spine1
		{
			OFFSET 0.000000 13.840401 0.053500
			CHANNELS 3 Xrotation Yrotation Zrotation
			JOINT Spine2
			{
				OFFSET 0.000000 14.712700 -0.366200
				CHANNELS 3 Xrotation Yrotation Zrotation
				JOINT Neck
				{
					OFFSET 0.000000 35.415497 -3.314200
					CHANNELS 3 Xrotation Yrotation Zrotation
					JOINT Head
					{
						OFFSET 0.000000 16.899200 1.218300
						CHANNELS 3 Xrotation Yrotation Zrotation
						JOINT HeadTop_End
						{
							OFFSET 0.000000 22.206207 2.192500
							CHANNELS 3 Xrotation Yrotation Zrotation
							End Site
							{
								OFFSET 0.000000 22.314178 0.000000
							}
						}
					}
				}
				JOINT LeftShoulder
				{
					OFFSET 12.896400 26.716293 -4.548400
					CHANNELS 3 Xrotation Yrotation Zrotation
					JOINT LeftArm
					{
						OFFSET 19.027000 -4.857010 -1.718400
						CHANNELS 3 Xrotation Yrotation Zrotation
						JOINT LeftForeArm
						{
							OFFSET 24.179897 0.000000 0.000000
							CHANNELS 3 Xrotation Yrotation Zrotation
							JOINT LeftHand
							{
								OFFSET 27.156403 0.000000 0.000000
								CHANNELS 3 Xrotation Yrotation Zrotation
								JOINT LeftHandIndex1
								{
									OFFSET 16.441200 0.000000 0.000000
									CHANNELS 3 Xrotation Yrotation Zrotation
									JOINT LeftHandIndex2
									{
										OFFSET 4.821899 0.000000 0.000000
										CHANNELS 3 Xrotation Yrotation Zrotation
										JOINT LeftHandIndex3
										{
											OFFSET 6.386497 0.000000 0.000000
											CHANNELS 3 Xrotation Yrotation Zrotation
											JOINT LeftHandIndex4
											{
												OFFSET 5.188988 0.000000 0.000000
												CHANNELS 3 Xrotation Yrotation Zrotation
												End Site
												{
													OFFSET -0.178703 5.185913 0.000177
												}
											}
										}
									}
								}
								JOINT LeftHandThumb1
								{
									OFFSET 6.534897 -5.032593 5.900300
									CHANNELS 3 Xrotation Yrotation Zrotation
									JOINT LeftHandThumb2
									{
										OFFSET 3.818176 -2.204422 2.204423
										CHANNELS 3 Xrotation Yrotation Zrotation
										JOINT LeftHandThumb3
										{
											OFFSET 3.252098 -1.877594 1.877601
											CHANNELS 3 Xrotation Yrotation Zrotation
											JOINT LeftHandThumb4
											{
												OFFSET 5.251778 -3.032120 3.032117
												CHANNELS 3 Xrotation Yrotation Zrotation
												End Site
												{
													OFFSET 0.000023 6.780014 0.000000
												}
											}
										}
									}
								}
							}
						}
					}
				}
				JOINT RightShoulder
				{
					OFFSET -12.896300 26.716293 -4.548400
					CHANNELS 3 Xrotation Yrotation Zrotation
					JOINT RightArm
					{
						OFFSET -19.027000 -4.857010 -1.718400
						CHANNELS 3 Xrotation Yrotation Zrotation
						JOINT RightForeArm
						{
							OFFSET -24.179897 0.000000 0.000000
							CHANNELS 3 Xrotation Yrotation Zrotation
							JOINT RightHand
							{
								OFFSET -27.156403 0.000000 0.000000
								CHANNELS 3 Xrotation Yrotation Zrotation
								JOINT RightHandThumb1
								{
									OFFSET -6.591202 -4.852203 5.988100
									CHANNELS 3 Xrotation Yrotation Zrotation
									JOINT RightHandThumb2
									{
										OFFSET -3.818176 -2.204422 2.204423
										CHANNELS 3 Xrotation Yrotation Zrotation
										JOINT RightHandThumb3
										{
											OFFSET -3.252098 -1.877594 1.877601
											CHANNELS 3 Xrotation Yrotation Zrotation
											JOINT RightHandThumb4
											{
												OFFSET -5.251778 -3.032120 3.032117
												CHANNELS 3 Xrotation Yrotation Zrotation
												End Site
												{
													OFFSET -0.000023 6.780014 0.000000
												}
											}
										}
									}
								}
								JOINT RightHandIndex1
								{
									OFFSET -16.029404 0.000000 0.000000
									CHANNELS 3 Xrotation Yrotation Zrotation
									JOINT RightHandIndex2
									{
										OFFSET -5.213303 0.000000 0.000000
										CHANNELS 3 Xrotation Yrotation Zrotation
										JOINT RightHandIndex3
										{
											OFFSET -6.386528 0.000000 0.000000
											CHANNELS 3 Xrotation Yrotation Zrotation
											JOINT RightHandIndex4
											{
												OFFSET -5.189026 0.000000 0.000000
												CHANNELS 3 Xrotation Yrotation Zrotation
												End Site
												{
													OFFSET 0.236702 5.183624 0.001972
												}
											}
										}
									}
								}
							}
						}
					}
				}
			}
		}
	}
	JOINT LeftUpLeg
	{
		OFFSET 14.073000 -7.904099 -1.463000
		CHANNELS 3 Xrotation Yrotation Zrotation
		JOINT LeftLeg
		{
			OFFSET -0.109806 -34.073280 4.093200
			CHANNELS 3 Xrotation Yrotation Zrotation
			JOINT LeftFoot
			{
				OFFSET 0.109806 -29.899420 -6.319000
				CHANNELS 3 Xrotation Yrotation Zrotation
				JOINT LeftToeBase
				{
					OFFSET 1.551100 -14.988700 20.535801
					CHANNELS 3 Xrotation Yrotation Zrotation
					JOINT LeftToe_End
					{
						OFFSET 0.221200 0.570800 13.248301
						CHANNELS 3 Xrotation Yrotation Zrotation
						End Site
						{
							OFFSET 0.000000 13.262435 0.000000
						}
					}
				}
			}
		}
	}
	JOINT RightUpLeg
	{
		OFFSET -13.839300 -7.904099 -1.463000
		CHANNELS 3 Xrotation Yrotation Zrotation
		JOINT RightLeg
		{
			OFFSET 0.109694 -34.073219 4.093300
			CHANNELS 3 Xrotation Yrotation Zrotation
			JOINT RightFoot
			{
				OFFSET -0.109694 -29.899384 -6.319200
				CHANNELS 3 Xrotation Yrotation Zrotation
				JOINT RightToeBase
				{
					OFFSET -1.551100 -14.988700 20.535801
					CHANNELS 3 Xrotation Yrotation Zrotation
					JOINT RightToe_End
					{
						OFFSET -0.221200 0.570900 13.248299
						CHANNELS 3 Xrotation Yrotation Zrotation
						End Site
						{
							OFFSET 0.000000 13.262440 0.000000
						}
					}
				}
			}
		}
	}
}
MOTION
Frames: 7
Frame Time: 0.033333
73.716591 66.792084 -5.913157 54.618318 63.756811 -42.596502 7.709592 -0.010733 1.936675 15.419103 -0.183964 2.618931 15.419091 -0.183978 2.618925 -11.018100 -0.702048 -2.102861 17.214394 -6.857886 -3.955840 0.000001 -0.000000 0.000001 0.070545 -10.189661 -18.413510 -66.345630 -10.237517 -14.358220 -1.517825 -98.660532 -1.447597 -33.983278 -2.800105 0.350372 4.051935 15.579583 -13.578660 -4.095869 12.713245 -76.553457 -0.000003 0.000002 0.000005 -0.000001 0.000001 0.000001 -13.322429 -11.156070 -5.688888 5.535838 13.225669 2.234652 0.000002 -0.000003 -0.000004 -0.000003 0.000001 0.000000 -1.224353 20.499578 21.599348 -22.577443 67.449908 16.765092 -0.693663 104.976927 0.809043 16.351427 21.168669 -33.332146 -13.266626 -6.430518 -7.934206 12.525980 -26.571480 -1.146465 0.000011 0.000004 -0.000000 -0.000001 -0.000002 -0.000000 2.897055 -20.355806 57.558154 1.247117 -2.368008 62.391777 0.000003 -0.000007 0.000007 0.000001 -0.000001 -0.000000 -44.022868 15.753693 25.698276 63.430068 -4.112299 -2.848156 -34.310096 5.300666 -19.965282 -4.517513 -0.034142 0.072571 0.000000 0.000000 0.000000 -83.548206 6.577363 -27.927330 43.829918 1.767292 1.782592 21.379974 -9.117998 9.204364 -0.221565 -0.187820 0.245977 0.000000 0.000003 0.000000 
73.228340 67.057938 -6.899513 52.935885 63.723684 -40.809766 7.687895 0.012500 1.946680 15.375869 -0.178067 2.605082 15.375874 -0.178055 2.605085 -11.177452 -0.539412 -2.115454 17.145764 -6.234208 -4.849829 -0.000001 -0.000001 0.000001 0.009029 -10.285435 -19.312326 -66.528590 -11.524853 -15.847466 -1.596581 -97.984760 -1.530354 -32.604157 -2.000376 1.041848 4.051946 15.579603 -13.578665 -4.095867 12.713227 -76.553457 -0.000004 0.000006 0.000003 -0.000001 0.000001 -0.000001 -13.322424 -11.156066 -5.688876 5.535856 13.225678 2.234651 0.000006 -0.000003 -0.000007 -0.000001 -0.000001 0.000000 -1.234302 20.360709 21.764867 -23.929694 66.745408 16.543994 -0.756364 104.215853 0.865761 13.276475 22.459928 -31.518147 -13.266617 -6.430526 -7.934193 12.525997 -26.571478 -1.146465 0.000012 0.000000 -0.000000 0.000001 0.000002 0.000000 2.897046 -20.355815 57.558154 1.247137 -2.368001 62.391756 0.000003 -0.000006 0.000001 0.000002 0.000001 0.000002 -44.055062 16.252573 24.719699 64.034321 -3.931117 -2.837245 -34.477610 5.609787 -18.819014 -4.532670 -0.034036 0.072611 0.000000 0.000000 -0.000000 -82.351229 6.332332 -27.984818 40.485161 1.668915 1.652647 23.866740 -8.557656 9.417508 -0.221620 -0.187906 0.246080 -0.000000 0.000000 0.000000 
72.884758 67.329475 -7.612381 51.417333 63.605338 -39.132643 7.649540 0.028433 1.949142 15.299298 -0.180800 2.576915 15.299286 -0.180784 2.576907 -11.272102 -0.406126 -2.198172 17.047759 -5.803593 -5.531931 -0.000002 0.000001 -0.000001 -0.058327 -10.392923 -20.255679 -66.595287 -12.069644 -16.973145 -1.546867 -97.988947 -1.484301 -31.377886 -1.026499 1.980779 4.051938 15.579585 -13.578661 -4.095860 12.713235 -76.553450 -0.000003 0.000002 0.000006 -0.000000 -0.000007 0.000002 -13.322431 -11.156067 -5.688881 5.535838 13.225662 2.234656 0.000004 -0.000004 -0.000006 -0.000003 0.000002 0.000003 -1.256076 20.275142 21.971790 -24.613748 66.301964 16.195396 -0.776187 104.067412 0.882161 11.006213 22.107318 -29.735065 -13.266618 -6.430528 -7.934189 12.525975 -26.571476 -1.146483 0.000012 0.000004 -0.000001 0.000001 -0.000001 -0.000000 2.897055 -20.355798 57.558168 1.247110 -2.368004 62.391756 0.000006 -0.000009 -0.000001 0.000004 0.000000 0.000001 -43.817996 16.793709 23.870425 64.176205 -3.754759 -2.814732 -34.495928 5.953303 -18.002157 -4.558688 -0.034011 0.072657 0.000000 0.000001 -0.000000 -81.341235 6.018205 -27.950649 37.669941 1.613734 1.540628 25.828955 -8.045334 9.438899 -0.221634 -0.187916 0.246080 -0.000000 -0.000003 -0.000000 
72.724312 67.586052 -7.974726 49.997941 63.550696 -37.537644 7.597217 0.030250 1.955769 15.194683 -0.194154 2.560445 15.194671 -0.194156 2.560447 -11.291022 -0.294303 -2.402543 16.870253 -5.575126 -5.941346 -0.000001 0.000000 -0.000000 -0.114194 -10.450399 -21.065167 -66.296343 -11.867026 -17.851208 -1.415992 -98.480201 -1.356723 -30.293921 -0.124327 3.047712 4.051941 15.579591 -13.578670 -4.095868 12.713237 -76.553457 -0.000004 0.000007 0.000006 0.000001 -0.000003 -0.000002 -13.322439 -11.156079 -5.688895 5.535829 13.225680 2.234647 0.000006 -0.000004 -0.000005 -0.000003 -0.000002 -0.000001 -1.276667 20.198628 22.165255 -24.413569 65.971691 15.682982 -0.745424 104.582600 0.850630 9.468510 19.950310 -28.208902 -13.266603 -6.430519 -7.934193 12.525976 -26.571502 -1.146467 0.000013 0.000004 -0.000001 -0.000000 -0.000003 -0.000000 2.897042 -20.355796 57.558154 1.247124 -2.367989 62.391777 0.000005 -0.000007 -0.000002 -0.000002 -0.000001 -0.000000 -43.194075 17.458507 23.349369 63.817333 -3.647503 -2.788135 -34.359110 6.122918 -17.670748 -4.571309 -0.033973 0.072694 -0.000000 -0.000000 -0.000000 -80.580475 5.668390 -27.883890 35.941726 1.480824 1.462097 26.921399 -7.574993 9.174505 -0.221618 -0.187889 0.246054 -0.000000 -0.000002 0.000000 
72.676987 67.821785 -8.099331 48.580315 63.598145 -35.942289 7.544460 0.025681 1.973019 15.089150 -0.203225 2.568594 15.089129 -0.203232 2.568602 -11.290007 -0.194305 -2.681825 16.636555 -5.463778 -6.178883 -0.000000 -0.000000 0.000001 -0.154211 -10.460402 -21.695560 -65.789174 -11.264373 -18.692768 -1.297823 -99.014712 -1.241346 -29.290822 0.474663 3.891852 4.051941 15.579593 -13.578662 -4.095866 12.713246 -76.553457 -0.000003 0.000001 0.000003 -0.000000 0.000003 0.000001 -13.322421 -11.156059 -5.688881 5.535835 13.225669 2.234652 0.000003 -0.000004 -0.000002 -0.000001 0.000002 0.000001 -1.287994 20.110411 22.308065 -23.644382 65.772625 15.116042 -0.693193 105.443572 0.799485 8.465194 16.531653 -26.995447 -13.266610 -6.430521 -7.934181 12.525988 -26.571499 -1.146472 0.000013 0.000002 -0.000001 0.000000 -0.000002 -0.000000 2.897042 -20.355803 57.558175 1.247130 -2.368004 62.391777 0.000004 -0.000007 0.000003 0.000002 -0.000000 -0.000000 -42.320685 18.277091 23.131014 63.175575 -3.587742 -2.761723 -34.108742 6.030915 -17.680279 -4.578830 -0.034188 0.072699 -0.000000 0.000001 0.000000 -79.942044 5.329921 -27.866318 34.950536 1.435787 1.415336 27.441115 -7.067914 8.818518 -0.221602 -0.187880 0.246045 -0.000000 -0.000002 0.000000 
72.647507 68.056000 -8.154602 47.087304 63.682403 -34.242276 7.502990 0.026525 1.998531 15.006136 -0.195387 2.593388 15.006142 -0.195405 2.593407 -11.342776 -0.099612 -2.952257 16.394389 -5.373558 -6.415501 0.000002 0.000002 -0.000001 -0.185422 -10.448069 -22.221800 -65.335827 -10.663277 -19.600833 -1.229286 -99.277004 -1.174993 -28.297120 0.701330 4.340506 4.051941 15.579593 -13.578677 -4.095850 12.713240 -76.553457 -0.000003 0.000007 0.000004 0.000001 -0.000003 -0.000000 -13.322436 -11.156067 -5.688882 5.535830 13.225669 2.234652 0.000005 -0.000004 -0.000004 -0.000000 -0.000001 0.000001 -1.285590 20.010986 22.368656 -22.873081 65.798634 14.693714 -0.647436 106.269008 0.755850 7.723321 12.526690 -26.000514 -13.266639 -6.430532 -7.934201 12.525997 -26.571487 -1.146458 0.000012 -0.000000 -0.000001 -0.000000 -0.000000 -0.000000 2.897040 -20.355808 57.558148 1.247122 -2.368012 62.391756 -0.000006 -0.000002 0.000006 0.000001 -0.000000 0.000002 -41.334655 19.183148 22.926368 62.469183 -3.493179 -2.730203 -33.885883 5.829215 -17.654301 -4.638243 -0.034378 0.072830 0.000000 -0.000001 -0.000000 -79.285594 5.054980 -27.875187 34.127508 1.416599 1.376965 27.836735 -6.522420 8.467111 -0.221613 -0.187880 0.246051 -0.000000 -0.000002 0.000000 
72.644783 68.318924 -8.144522 45.535211 63.695981 -32.400952 7.472376 0.034007 2.025568 14.944850 -0.171696 2.621039 14.944869 -0.171666 2.621028 -11.484696 -0.006015 -3.165427 16.155614 -5.251850 -6.761542 -0.000000 -0.000000 0.000001 -0.209582 -10.399293 -22.699808 -64.970645 -10.140072 -20.497459 -1.190412 -99.348079 -1.137836 -27.336838 0.669255 4.571274 4.051957 15.579593 -13.578682 -4.095863 12.713251 -76.553457 -0.000003 0.000005 0.000005 0.000001 0.000000 -0.000000 -13.322430 -11.156057 -5.688889 5.535844 13.225669 2.234662 0.000001 -0.000005 -0.000004 -0.000001 -0.000000 0.000001 -1.265527 19.897395 22.322204 -22.365658 66.092127 14.490753 -0.614738 106.922869 0.725987 7.078472 8.290788 -25.127948 -13.266617 -6.430517 -7.934189 12.525974 -26.571499 -1.146479 0.000012 0.000003 -0.000001 0.000000 -0.000002 0.000000 2.897054 -20.355791 57.558154 1.247116 -2.367991 62.391763 -0.000001 -0.000005 -0.000001 -0.000002 -0.000001 -0.000001 -40.112694 20.039893 22.426749 61.610260 -3.338579 -2.686053 -33.816857 5.818302 -17.379959 -4.791466 -0.034571 0.073155 -0.000000 -0.000000 -0.000000 -78.633782 4.885687 -27.826447 33.396121 1.363541 1.339323 28.145657 -6.008094 8.095008 -0.221612 -0.187907 0.246051 0.000000 -0.000002 0.000000 
